HIERARCHY
ROOT Hips
{
	OFFSET	0.00	0.00	0.00
	CHANNELS 6 Xposition Yposition Zposition Zrotation Xrotation Yrotation
	JOINT LeftUpLeg
	{
		OFFSET	 0.126116	-0.014019	-0.065224
		CHANNELS 3 Zrotation Xrotation Yrotation
		JOINT LeftLeg
		{
			OFFSET	 0.000000	 0.000000	 0.569914
			CHANNELS 3 Zrotation Xrotation Yrotation
			JOINT LeftFoot
			{
				OFFSET	 0.000000	 0.000000	 0.544423
				CHANNELS 3 Zrotation Xrotation Yrotation
				JOINT LeftToeBase
				{
					OFFSET	 0.000000	 0.000000	 0.207117
					CHANNELS 3 Zrotation Xrotation Yrotation
					End Site
					{
						OFFSET	 0.000000	 0.000000	 0.207117
					}
				}
			}
		}
	}
	JOINT RightUpLeg
	{
		OFFSET	-0.124023	-0.008373	-0.065224
		CHANNELS 3 Zrotation Xrotation Yrotation
		JOINT RightLeg
		{
			OFFSET	 0.000000	 0.000000	 0.570047
			CHANNELS 3 Zrotation Xrotation Yrotation
			JOINT RightFoot
			{
				OFFSET	 0.000000	 0.000000	 0.544354
				CHANNELS 3 Zrotation Xrotation Yrotation
				JOINT RightToeBase
				{
					OFFSET	 0.000000	 0.000000	 0.207540
					CHANNELS 3 Zrotation Xrotation Yrotation
					End Site
					{
						OFFSET	 0.000000	 0.000000	 0.207540
					}
				}
			}
		}
	}
	JOINT Spine
	{
		OFFSET	 0.000184	-0.007763	 0.117403
		CHANNELS 3 Zrotation Xrotation Yrotation
		JOINT Spine1
		{
			OFFSET	 0.000000	 0.000000	 0.137269
			CHANNELS 3 Zrotation Xrotation Yrotation
			JOINT Spine2
			{
				OFFSET	 0.000000	 0.000000	 0.156879
				CHANNELS 3 Zrotation Xrotation Yrotation
				JOINT LeftShoulder
				{
					OFFSET	 0.080501	-0.002496	 0.160144
					CHANNELS 3 Zrotation Xrotation Yrotation
					JOINT LeftArm
					{
						OFFSET	 0.000000	 0.000000	 0.164363
						CHANNELS 3 Zrotation Xrotation Yrotation
						JOINT LeftForeArm
						{
							OFFSET	 0.000000	 0.000000	 0.364576
							CHANNELS 3 Zrotation Xrotation Yrotation
							JOINT LeftHand
							{
								OFFSET	 0.000000	 0.000000	 0.360812
								CHANNELS 3 Zrotation Xrotation Yrotation
								JOINT LeftHandIndex1
								{
									OFFSET	 0.000000	 0.000000	 0.086006
									CHANNELS 3 Zrotation Xrotation Yrotation
									JOINT LeftHandIndex2
									{
										OFFSET	 0.000000	 0.000000	 0.047237
										CHANNELS 3 Zrotation Xrotation Yrotation
										JOINT LeftHandIndex3
										{
											OFFSET	-0.004284	-0.000551	 0.038165
											CHANNELS 3 Zrotation Xrotation Yrotation
											End Site
											{
												OFFSET	-0.004284	-0.000551	 0.038165
											}
										}
									}
								}
							}
						}
					}
				}
				JOINT Neck
				{
					OFFSET	 0.000000	 0.000000	 0.176489
					CHANNELS 3 Zrotation Xrotation Yrotation
					JOINT Head
					{
						OFFSET	 0.000000	-0.001747	 0.077940
						CHANNELS 3 Zrotation Xrotation Yrotation
						End Site
						{
							OFFSET	 0.000000	-0.001747	 0.077940
						}
					}
				}
				JOINT RightShoulder
				{
					OFFSET	-0.080363	 0.000306	 0.159706
					CHANNELS 3 Zrotation Xrotation Yrotation
					JOINT RightArm
					{
						OFFSET	 0.000000	 0.000000	 0.164196
						CHANNELS 3 Zrotation Xrotation Yrotation
						JOINT RightForeArm
						{
							OFFSET	 0.000000	 0.000000	 0.365611
							CHANNELS 3 Zrotation Xrotation Yrotation
							JOINT RightHand
							{
								OFFSET	 0.000000	 0.000000	 0.360648
								CHANNELS 3 Zrotation Xrotation Yrotation
								JOINT RightHandIndex1
								{
									OFFSET	 0.000000	 0.000000	 0.069977
									CHANNELS 3 Zrotation Xrotation Yrotation
									JOINT RightHandIndex2
									{
										OFFSET	 0.000000	 0.000000	 0.052305
										CHANNELS 3 Zrotation Xrotation Yrotation
										JOINT RightHandIndex3
										{
											OFFSET	 0.009002	-0.000782	 0.042196
											CHANNELS 3 Zrotation Xrotation Yrotation
											End Site
											{
												OFFSET	 0.009002	-0.000782	 0.042196
											}
										}
									}
								}
							}
						}
					}
				}
			}
		}
	}
}
MOTION
Frames:    7
Frame Time: 0.03333334
-0.719847	-0.026217	 1.255445	 168.756900	-7.393892	 1.394758	 10.712100	-0.663263	 175.328000	-1.936775	-32.794200	-1.843269	-61.695860	 76.892750	 52.512550	-2.385833	 28.452760	 0.000004	-35.444500	-6.830051	-167.364900	 10.385620	-32.734540	 5.781904	 21.827460	 78.099260	-24.548270	 2.384659	 28.388700	-0.000001	 47.136180	 2.186788	-15.358670	 2.661299	 11.920990	-3.667468	 12.542560	-2.446042	 10.446820	-91.776250	 78.527380	-179.999900	 10.811940	 47.478070	-47.714850	-39.973390	 28.786200	-54.596550	-38.970780	-36.071480	-22.591850	-4.130354	 21.526190	 0.991307	-5.167926	 0.731697	 3.519349	-1.378229	 35.397820	-2.634230	 14.793350	 5.289843	-3.505233	 9.124488	-13.914630	-3.764707	 89.782100	 78.203820	 180.000000	-60.719470	 2.288677	 77.664540	-0.602586	 7.646173	 149.433300	 8.899254	 15.326160	 14.384600	 5.716295	 19.173350	-3.684826	 5.027458	 0.246833	-9.377971	-2.350882	 35.473990	 5.254307
-0.719040	-0.026814	 1.253933	 168.026000	-7.622583	 1.614536	 9.559429	-0.108957	 175.232400	-1.576809	-32.842130	-1.649989	-64.164830	 76.906620	 54.678860	-2.385833	 28.452760	 0.000004	-36.532620	-6.723747	-167.352300	 10.801290	-32.753180	 6.015469	 20.166730	 78.445720	-23.133630	 2.384659	 28.388700	-0.000001	 49.418640	 1.710172	-16.395010	 3.892023	 13.029410	-5.058979	 12.722720	-4.635652	 12.071030	-91.776240	 78.527400	-180.000000	 0.022583	 47.127780	-30.471920	-25.798620	 34.688990	-81.055080	-40.854970	-36.361950	-23.896970	-4.130354	 21.526190	 0.991307	-5.167926	 0.731697	 3.519349	-1.378229	 35.397820	-2.634230	 15.087190	 5.400852	-4.516643	 8.896161	-15.992630	-4.262501	 89.782130	 78.203890	 180.000000	-61.285470	-0.727088	 77.424360	 1.514544	 6.449394	 148.039400	 1.490019	 14.844750	 16.123840	 5.716295	 19.173350	-3.684826	 5.027458	 0.246833	-9.377971	-2.350882	 35.473990	 5.254307
-0.717775	-0.028008	 1.252640	 167.341400	-7.581908	 1.350316	 8.630363	 0.039528	 176.214100	-1.245655	-32.561420	-1.458910	-62.809950	 77.405530	 52.864730	-2.385833	 28.452760	 0.000004	-37.148860	-7.750118	-166.865300	 11.215660	-33.067850	 6.298612	 18.536620	 78.360820	-21.734360	 2.384659	 28.388700	-0.000001	 51.523680	 0.748406	-16.645890	 4.793674	 14.888650	-4.423005	 12.898080	-7.273393	 12.117800	-91.776170	 78.527360	 180.000000	-12.871350	 40.923910	-39.340030	-34.668660	 31.456140	-64.581770	-42.349940	-36.391400	-24.676990	-4.130354	 21.526190	 0.991307	-5.167926	 0.731697	 3.519349	-1.378229	 35.397820	-2.634230	 15.156050	 5.888683	-5.108140	 8.788810	-18.271310	-4.251655	 89.782080	 78.203850	-180.000000	-60.273270	-3.732658	 77.355020	 4.065747	 4.784126	 146.697600	-6.227352	 14.288060	 17.927820	 5.716295	 19.173350	-3.684826	 5.027458	 0.246833	-9.377971	-2.350882	 35.473990	 5.254307
-0.716142	-0.028971	 1.251684	 166.712900	-7.598371	 1.311193	 7.358304	 0.194690	 176.959800	-0.809343	-32.279750	-1.214329	-63.304650	 77.891780	 52.880180	-2.385833	 28.452760	 0.000004	-37.957740	-8.511727	-166.580200	 11.652290	-33.285190	 6.581638	 17.125700	 78.192490	-20.546860	 2.384659	 28.388700	-0.000001	 53.649930	-0.445774	-16.652740	 6.044069	 16.613120	-4.247208	 12.903790	-9.379280	 11.939700	-91.776200	 78.527400	-180.000000	-25.584300	 35.471300	-57.707440	-48.815810	 16.810570	-29.881490	-43.477270	-36.407840	-25.034540	-4.130354	 21.526190	 0.991307	-5.167926	 0.731697	 3.519349	-1.378229	 35.397820	-2.634230	 14.858630	 5.300569	-5.070273	 8.521652	-19.082850	-4.697089	 89.782140	 78.203850	 180.000000	-57.891610	-6.383634	 78.390660	 6.681213	 2.921026	 145.561200	-13.047730	 13.459410	 17.513830	 5.716295	 19.173350	-3.684826	 5.027458	 0.246833	-9.377971	-2.350882	 35.473990	 5.254307
-0.715238	-0.029195	 1.251331	 166.176800	-7.785162	 1.087921	 6.473007	 0.831998	 177.407700	-0.531551	-31.720870	-1.049321	-62.740490	 77.616550	 52.202310	-2.385833	 28.452760	 0.000004	-38.787750	-8.893971	-166.164600	 12.129360	-33.525280	 6.895009	 16.877430	 78.638270	-20.503470	 2.384659	 28.388700	-0.000001	 56.115370	-1.543937	-16.479570	 7.850562	 17.881340	-4.974412	 12.595660	-11.230270	 12.071410	-91.776290	 78.527420	-179.999900	-37.178680	 31.987710	-70.793320	-51.826080	 1.234812	-5.356157	-43.286850	-36.006130	-24.211110	-4.130354	 21.526190	 0.991307	-5.167926	 0.731697	 3.519349	-1.378229	 35.397820	-2.634230	 14.210880	 5.238241	-4.682358	 7.932377	-20.785890	-6.029120	 89.782090	 78.203850	-180.000000	-53.427090	-9.061448	 80.735800	 9.057038	 1.184006	 144.145800	-19.100130	 12.996950	 13.697190	 5.716295	 19.173350	-3.684826	 5.027458	 0.246833	-9.377971	-2.350882	 35.473990	 5.254307
-0.717421	-0.028488	 1.251984	 165.792100	-7.875360	 1.227679	 5.222412	 1.426133	 177.685200	-0.199860	-31.511660	-0.869627	-63.516640	 77.886750	 52.623440	-2.385833	 28.452760	 0.000004	-39.856220	-8.652127	-165.858400	 12.494580	-32.967900	 6.999924	 17.156880	 78.761570	-21.144830	 2.384659	 28.388700	-0.000001	 58.310840	-2.296398	-16.996410	 9.636715	 18.338530	-6.610979	 12.329250	-12.246390	 12.929200	-91.776170	 78.527380	 180.000000	-42.234990	 30.681200	-71.963260	-50.691220	 1.090319	-5.014436	-42.292660	-35.482340	-22.736030	-4.130354	 21.526190	 0.991307	-5.167926	 0.731697	 3.519349	-1.378229	 35.397820	-2.634230	 13.491270	 4.225537	-4.302121	 7.205250	-21.078050	-7.771097	 89.782090	 78.203890	-180.000000	-48.716480	-11.784230	 83.277170	 10.732800	-0.052233	 141.710700	-23.766350	 13.309680	 9.018688	 5.716295	 19.173350	-3.684826	 5.027458	 0.246833	-9.377971	-2.350882	 35.473990	 5.254307
-0.720794	-0.027371	 1.253256	 165.676400	-7.693779	 1.785822	 3.605052	 1.250147	 177.743000	 0.307208	-31.785930	-0.609182	-65.209480	 78.102080	 53.992390	-2.385833	 28.452760	 0.000004	-41.200000	-8.659163	-166.229700	 12.880430	-32.477430	 7.123025	 14.619270	 78.837970	-18.640990	 2.384659	 28.388700	-0.000001	 60.401200	-3.760444	-17.668250	 11.837740	 18.073320	-9.118388	 11.975690	-12.458530	 14.148450	-91.776150	 78.527360	 180.000000	-45.938400	 29.506370	-73.115430	-49.299640	 0.938591	-4.621835	-40.864430	-34.803050	-20.871900	-4.130354	 21.526190	 0.991307	-5.167926	 0.731697	 3.519349	-1.378229	 35.397820	-2.634230	 12.816390	 3.846734	-4.033166	 6.482571	-21.926820	-9.388700	 89.782080	 78.203890	-180.000000	-42.795800	-13.284140	 87.055940	 12.415430	-1.557462	 137.533700	-27.041380	 14.820910	 3.487228	 5.716295	 19.173350	-3.684826	 5.027458	 0.246833	-9.377971	-2.350882	 35.473990	 5.254307
